<svg xmlns="http://www.w3.org/2000/svg" viewBox="0 0 960 540"><defs><linearGradient id="sky" x2="0" y2="1"><stop stop-color="#102A43"/><stop offset="1" stop-color="#315B72"/></linearGradient><linearGradient id="sand" x2="0" y2="1"><stop stop-color="#F2D48A"/><stop offset="1" stop-color="#D6A84B"/></linearGradient></defs><path fill="url(#sky)" d="M0 0h960v540H0z"/><circle cx="780" cy="100" r="54" fill="#FFF8E7" opacity=".9"/><path d="M750 54a51 51 0 1 0 32 94 58 58 0 1 1-32-94Z" fill="#102A43"/><g fill="#F2D48A"><circle cx="110" cy="90" r="3"/><circle cx="220" cy="150" r="3"/><circle cx="430" cy="82" r="4"/><circle cx="620" cy="160" r="3"/><circle cx="890" cy="190" r="3"/></g><path d="M0 365c145-78 251-63 385 6 138 72 274 35 575-64v233H0Z" fill="url(#sand)"/><path d="M0 430c214-72 370-34 509 36 129 64 257 37 451-10v84H0Z" fill="#C38A35" opacity=".65"/><path d="M108 392h55v-96h-55zM119 266h33v37h-33zM91 308h89v17H91z" fill="#176B4D"/><path d="M100 266c0-20 14-34 36-44 22 10 36 24 36 44Z" fill="#D6A84B"/></svg>
