<svg xmlns="http://www.w3.org/2000/svg" viewBox="0 0 120 160"><ellipse cx="60" cy="145" rx="36" ry="9" fill="#102A43" opacity=".18"/><path d="M32 150c2-45 9-71 28-74 19 3 26 29 28 74Z" fill="#176B4D"/><path d="M38 91c3-25 9-46 22-55 13 9 19 30 22 55-13 10-31 10-44 0Z" fill="#F2D48A"/><circle cx="60" cy="51" r="22" fill="#B97745"/><path d="M38 50c3-28 12-38 22-38s19 10 22 38c-10-7-34-7-44 0Z" fill="#102A43"/><circle cx="52" cy="52" r="2.5" fill="#102A43"/><circle cx="68" cy="52" r="2.5" fill="#102A43"/><path d="M53 63c5 4 9 4 14 0" fill="none" stroke="#102A43" stroke-width="3" stroke-linecap="round"/><path d="M31 109 11 130M89 109l20 21" fill="none" stroke="#176B4D" stroke-width="12" stroke-linecap="round"/></svg>
